<svg width="96" height="96" viewBox="0 0 96 96" fill="none" xmlns="http://www.w3.org/2000/svg">
  <defs>
    <linearGradient id="logoGradient" x1="0%" y1="0%" x2="100%" y2="100%">
      <stop offset="0%" style="stop-color:#3B82F6;stop-opacity:1" />
      <stop offset="100%" style="stop-color:#6366F1;stop-opacity:1" />
    </linearGradient>
  </defs>
  
  <!-- 背景圆角矩形 -->
  <rect width="96" height="96" rx="20" fill="url(#logoGradient)"/>
  
  <!-- 主要图标 - 书本和心形的组合 -->
  <g transform="translate(24, 24)">
    <!-- 书本 -->
    <path d="M6 4C4.89543 4 4 4.89543 4 6V42C4 43.1046 4.89543 44 6 44H42C43.1046 44 44 43.1046 44 42V6C44 4.89543 43.1046 4 42 4H6Z" fill="white" fill-opacity="0.9"/>
    <path d="M8 8H40V40H8V8Z" fill="url(#logoGradient)" fill-opacity="0.3"/>
    
    <!-- 页面线条 -->
    <line x1="12" y1="16" x2="36" y2="16" stroke="white" stroke-width="2" stroke-linecap="round"/>
    <line x1="12" y1="22" x2="32" y2="22" stroke="white" stroke-width="2" stroke-linecap="round"/>
    <line x1="12" y1="28" x2="34" y2="28" stroke="white" stroke-width="2" stroke-linecap="round"/>
    
    <!-- 心形装饰 -->
    <path d="M24 34C24 34 18 30 18 26C18 24 20 22 22 22C23 22 24 23 24 23S25 22 26 22C28 22 30 24 30 26C30 30 24 34 24 34Z" fill="#FF6B9D" fill-opacity="0.8"/>
  </g>
  
  <!-- 装饰性光点 -->
  <circle cx="20" cy="20" r="2" fill="white" fill-opacity="0.6"/>
  <circle cx="76" cy="76" r="1.5" fill="white" fill-opacity="0.4"/>
  <circle cx="80" cy="16" r="1" fill="white" fill-opacity="0.5"/>
</svg>